<svg width="14" height="24" viewBox="0 0 14 24" fill="none" xmlns="http://www.w3.org/2000/svg">
<path id="&#244;&#128;&#175;&#182;" d="M0 12C0.013766 11.539 0.178958 11.1458 0.550639 10.7932L11.2881 0.447458C11.5772 0.149153 11.9626 0 12.4031 0C13.2979 0 14 0.677966 14 1.55932C14 1.99322 13.821 2.38644 13.5182 2.69831L3.84071 12L13.5182 21.3017C13.821 21.6 14 21.9932 14 22.4271C14 23.322 13.2979 24 12.4031 24C11.9626 24 11.5772 23.8508 11.2881 23.5525L0.550639 13.2068C0.178958 12.8542 0 12.461 0 12Z" fill="white"/>
</svg>
