<svg width="28" height="28" viewBox="0 0 28 28" fill="none" xmlns="http://www.w3.org/2000/svg">
<g id="icon">
<path id="&#244;&#128;&#140;&#159;" d="M6.82513 21.7903C5.0004 21.7903 4 20.7979 4 18.9812V10.5538C4 8.7451 5.0004 7.7447 6.82513 7.7447H8.68187C9.30612 7.7447 9.53021 7.65666 9.95438 7.2485L10.5786 6.62425C11.0268 6.19208 11.459 6 12.2593 6H15.7167C16.517 6 16.9492 6.19208 17.3974 6.62425L18.0216 7.2485C18.4458 7.66467 18.6699 7.7447 19.2861 7.7447H21.1749C22.9996 7.7447 24 8.7451 24 10.5538V18.9812C24 20.7979 22.9996 21.7903 21.1749 21.7903H6.82513ZM14.004 19.0532C16.3569 19.0532 18.2457 17.1565 18.2457 14.7955C18.2457 12.4346 16.3569 10.5458 14.004 10.5458C11.6511 10.5458 9.76231 12.4346 9.76231 14.7955C9.76231 17.1565 11.6511 19.0532 14.004 19.0532ZM18.7259 11.8583C18.7259 12.4906 19.2381 12.9868 19.8543 12.9788C20.4626 12.9788 20.9748 12.4826 20.9748 11.8583C20.9748 11.2581 20.4626 10.7459 19.8543 10.7459C19.2461 10.7459 18.7259 11.2581 18.7259 11.8583ZM14.004 17.2445C12.6595 17.2445 11.563 16.1481 11.563 14.7955C11.563 13.443 12.6515 12.3545 14.004 12.3545C15.3565 12.3545 16.437 13.443 16.437 14.7955C16.437 16.1481 15.3565 17.2445 14.004 17.2445Z" fill="#171717"/>
</g>
</svg>
