<svg width="21" height="20" viewBox="0 0 21 20" fill="none" xmlns="http://www.w3.org/2000/svg">
<path id="Union" fill-rule="evenodd" clip-rule="evenodd" d="M1.5 0C0.947715 0 0.5 0.447715 0.5 1V8C0.5 8.55229 0.947715 9 1.5 9H8.5C9.05229 9 9.5 8.55229 9.5 8V1C9.5 0.447715 9.05229 0 8.5 0H1.5ZM1.5 11C0.947715 11 0.5 11.4477 0.5 12V19C0.5 19.5523 0.947715 20 1.5 20H8.5C9.05229 20 9.5 19.5523 9.5 19V12C9.5 11.4477 9.05229 11 8.5 11H1.5ZM11.5 1C11.5 0.447715 11.9477 0 12.5 0H19.5C20.0523 0 20.5 0.447715 20.5 1V8C20.5 8.55229 20.0523 9 19.5 9H12.5C11.9477 9 11.5 8.55229 11.5 8V1ZM12.5 11C11.9477 11 11.5 11.4477 11.5 12V19C11.5 19.5523 11.9477 20 12.5 20H19.5C20.0523 20 20.5 19.5523 20.5 19V12C20.5 11.4477 20.0523 11 19.5 11H12.5Z" fill="#171717"/>
</svg>
