<svg width="23" height="18" viewBox="0 0 23 18" fill="none" xmlns="http://www.w3.org/2000/svg">
<path id="Union" fill-rule="evenodd" clip-rule="evenodd" d="M1.50195 0C0.949668 0 0.501953 0.447715 0.501953 1V3C0.501953 3.55228 0.949668 4 1.50195 4H3.50195C4.05424 4 4.50195 3.55228 4.50195 3V1C4.50195 0.447715 4.05424 0 3.50195 0H1.50195ZM7.49805 0C6.94576 0 6.49805 0.447715 6.49805 1V3C6.49805 3.55228 6.94576 4 7.49805 4H21.498C22.0503 4 22.498 3.55228 22.498 3V1C22.498 0.447715 22.0503 0 21.498 0H7.49805ZM7.49805 7C6.94576 7 6.49805 7.44772 6.49805 8V10C6.49805 10.5523 6.94576 11 7.49805 11H21.498C22.0503 11 22.498 10.5523 22.498 10V8C22.498 7.44772 22.0503 7 21.498 7H7.49805ZM6.49805 15C6.49805 14.4477 6.94576 14 7.49805 14H21.498C22.0503 14 22.498 14.4477 22.498 15V17C22.498 17.5523 22.0503 18 21.498 18H7.49805C6.94576 18 6.49805 17.5523 6.49805 17V15ZM0.509766 8C0.509766 7.44772 0.957481 7 1.50977 7H3.50977C4.06205 7 4.50977 7.44772 4.50977 8V10C4.50977 10.5523 4.06205 11 3.50977 11H1.50977C0.957481 11 0.509766 10.5523 0.509766 10V8ZM1.52539 14C0.973106 14 0.525391 14.4477 0.525391 15V17C0.525391 17.5523 0.973106 18 1.52539 18H3.52539C4.07768 18 4.52539 17.5523 4.52539 17V15C4.52539 14.4477 4.07768 14 3.52539 14H1.52539Z" fill="#171717"/>
</svg>
