<svg width="90" height="50" viewBox="0 0 90 50" fill="none" xmlns="http://www.w3.org/2000/svg">
  <path d="M35.5762 39.48C49.4048 48.3923 64.7734 37.897 65.864 29.1865C61.6562 35.3809 54.2567 39.7777 45.5576 40.4518C42.1992 40.7156 38.8206 40.3866 35.5762 39.48Z" fill="white"/>
  <path d="M79.9374 23.1066C76.3751 12.9448 67.7805 11.701 67.7805 11.701C67.7805 11.701 74.4987 15.6641 76.7887 25.7787C79.0787 35.8932 73.3538 45.65 73.3538 45.65C73.3538 45.65 84.8036 36.9896 79.9374 23.1066Z" fill="white"/>
  <path d="M53.7931 13.7564C53.7931 13.7564 54.6518 10.7021 58.154 7.29576C58.154 7.29576 56.5382 4.71094 58.3258 1.15002C58.3258 1.15002 52.1772 4.54921 53.7931 13.7564Z" fill="white"/>
  <path d="M68.7566 15.2734C68.7566 15.2734 73.7301 25.1103 70.1993 35.2249C67.1364 43.9998 60.5212 48.6785 60.5212 48.6785C63.9209 47.7755 67.0152 45.975 69.4801 43.4656C71.9449 40.9562 73.6897 37.8301 74.5317 34.4149C75.3737 30.9996 75.2818 27.4208 74.2658 24.0532C73.2498 20.6856 71.3469 17.6531 68.7566 15.2734Z" fill="white"/>
  <path d="M58.3744 41.8086C52.6494 45.6257 47.5914 46.1023 47.5914 46.1023C56.8472 47.9157 64.9996 43.0023 68.3444 34.3662C69.7097 30.8641 70.0348 27.0423 69.2804 23.36C69.2804 23.36 68.0853 35.3337 58.3744 41.8086Z" fill="white"/>
  <path d="M78.0596 4.65516C68.2413 0.684907 58.705 5.04732 54.4685 14.6581C54.4685 14.6581 60.9091 9.21937 68.3372 10.695C80.9907 13.2068 86.3851 27.3961 81.5189 40.1341C94.9653 29.5472 91.3844 10.0495 78.0596 4.65516Z" fill="white"/>
  <path fill-rule="evenodd" clip-rule="evenodd" d="M9.33738 25.1934C9.33738 23.8251 8.75201 23.1252 6.53788 23.1252L2.60055 23.1224C0.960359 23.1224 0.689855 22.7359 0.689855 21.8271C0.689855 20.9927 0.981827 20.6163 2.60055 20.6163H8.96097V19.9694H2.47604C0.629744 19.9694 0 20.6506 0 21.8199C0 23.1882 0.616863 23.7321 2.46459 23.7321H6.33894C8.13657 23.7321 8.64753 24.0341 8.64753 25.1934C8.64753 26.4056 8.14659 26.6346 6.37043 26.6346H0.250466V27.2816H6.49638C8.52301 27.2816 9.33738 26.7677 9.33738 25.1934ZM11.9465 19.9694V27.283H12.6249V24.4391H18.3799C20.3751 24.4391 21.2939 23.9582 21.2939 22.142C21.2939 20.7623 20.5211 19.9694 18.327 19.9694H11.9465ZM12.6249 23.7951V20.6191H18.1924C19.9772 20.6191 20.5726 21.0585 20.5726 22.1549C20.5726 23.5432 20.0087 23.7951 18.2239 23.7951H12.6249ZM23.5896 19.9694H24.2695V26.6318H31.7877V27.2787H23.5896V19.9694ZM36.7799 24.7726L32.3831 19.9694H31.5258L36.4478 25.3608V27.2787H37.1177V25.358L42.0354 19.9694H41.1766L36.7799 24.7726ZM52.7381 27.283H43.5467V26.553L51.8293 20.6005H43.7543V19.9694H52.7381V20.7007L44.4556 26.6532H52.7381V27.283ZM58.9611 19.9694L54.198 27.283L54.9809 27.2858L56.1101 25.5512H62.7453L63.8788 27.283H64.6632L59.9 19.9694H58.9611ZM62.3159 24.8914H56.538L59.4334 20.4832L62.3159 24.8914Z" fill="white"/>
</svg>